Coordinates
version=1
nRows=29
nColumns=22
inDegrees=yes

Units are S.I. units (second, meters, Newtons, ...)
If the header above contains a line with 'inDegrees', this indicates whether rotational values are in degrees (yes) or radians (no).

endheader
time	pelvis_tilt	pelvis_list	pelvis_rotation	pelvis_tx	pelvis_ty	pelvis_tz	hip_flexion_r	hip_adduction_r	hip_rotation_r	knee_angle_r	ankle_angle_r	subtalar_angle_r	hip_flexion_l	hip_adduction_l	hip_rotation_l	knee_angle_l	ankle_angle_l	subtalar_angle_l	lumbar_extension	lumbar_bending	lumbar_rotation
      2.60000000	     -4.65103695	      0.64027192	    -39.39968003	     -0.36182074	      0.93934137	      0.31965778	      7.13749105	      7.64983257	      7.55642645	    -47.89192748	      1.90980858	     10.33491766	     25.78420324	     -2.61538547	      7.51807968	    -25.42243532	      3.41944419	      2.22600284	     -3.80400737	     -1.78161571	      8.78389716
      2.61000000	     -4.35222729	      0.79400850	    -39.68169115	     -0.35461905	      0.94014145	      0.32299576	      8.50589397	      6.88093893	      6.36316479	    -50.16846898	      1.95483610	     10.32617390	     25.02159615	     -2.29738005	      7.01948707	    -25.34630305	      3.94823065	      2.06183376	     -4.03252507	     -2.09158459	      8.11501705
      2.62000000	     -4.08663671	      0.94269466	    -39.93546106	     -0.34758404	      0.94085546	      0.32624724	      9.90542704	      6.11103973	      5.20443189	    -52.30200828	      2.27632329	      9.85242137	     24.33961835	     -1.99168491	      6.50896624	    -25.33093431	      4.40493901	      1.85903050	     -4.24611834	     -2.35704224	      7.34903549
      2.63000000	     -3.80548350	      1.01916433	    -40.18875770	     -0.34063214	      0.94169746	      0.32956777	     11.20368598	      5.37430731	      4.09672856	    -54.21473088	      2.72976193	      8.75462849	     23.56221188	     -1.72119460	      6.09233880	    -25.25849322	      4.93928475	      1.66131251	     -4.51581086	     -2.56486270	      6.59369704
      2.64000000	     -3.52281442	      1.03312806	    -40.43616208	     -0.33378756	      0.94265311	      0.33295955	     12.40973508	      4.69161684	      3.06290368	    -55.89210708	      3.33980009	      7.58540615	     22.74617888	     -1.49489268	      5.70863863	    -25.18337383	      5.44316469	      1.52863184	     -4.82272064	     -2.71636101	      5.81458418
      2.65000000	     -3.27284917	      0.99024536	    -40.68550436	     -0.32705539	      0.94368403	      0.33644975	     13.55182859	      4.10089573	      2.11184933	    -57.32618817	      4.01859977	      6.34605418	     21.92321893	     -1.33095932	      5.37579305	    -25.11056238	      5.93113753	      1.41487143	     -5.12565380	     -2.79483207	      5.04397884
      2.66000000	     -3.05906431	      0.89048420	    -40.94015719	     -0.32043027	      0.94478369	      0.34005877	     14.62363704	      3.61278937	      1.23830904	    -58.50600813	      4.71864089	      5.10788032	     21.09452601	     -1.23531898	      5.08196960	    -25.04131911	      6.40166064	      1.31513720	     -5.41900704	     -2.80031945	      4.29737703
      2.67000000	     -2.88435226	      0.74402609	    -41.20754981	     -0.31392024	      0.94593744	      0.34380948	     15.63002461	      3.23613971	      0.45329628	    -59.42918718	      5.39657095	      3.92707003	     20.25951972	     -1.20568020	      4.81918424	    -24.96217943	      6.86444233	      1.21580962	     -5.68986784	     -2.74365243	      3.57332745
      2.68000000	     -2.73502108	      0.56218956	    -41.48335972	     -0.30751253	      0.94712365	      0.34765552	     16.57302057	      2.93570273	     -0.28042139	    -60.10843506	      6.01750393	      2.84611393	     19.41913087	     -1.21997110	      4.57741667	    -24.87836068	      7.29472488	      1.11445741	     -5.94775196	     -2.64409174	      2.89955110
      2.69000000	     -2.60578563	      0.35506680	    -41.76947543	     -0.30121020	      0.94832629	      0.35161170	     17.45040123	      2.71472359	     -0.94440164	    -60.54752022	      6.58178143	      1.86339549	     18.56383694	     -1.26882335	      4.34950206	    -24.77118439	      7.69998503	      1.00213535	     -6.18848184	     -2.51449074	      2.24661653
      2.70000000	     -2.50358942	      0.13139109	    -42.08456010	     -0.29504275	      0.94950258	      0.35568008	     18.27878336	      2.57403514	     -1.53690045	    -60.75837012	      7.07991987	      0.94432315	     17.70079246	     -1.35724212	      4.11074735	    -24.63733937	      8.11797571	      0.86203730	     -6.40442064	     -2.35992871	      1.65694666
      2.71000000	     -2.41085727	     -0.09401955	    -42.40864622	     -0.28899063	      0.95064822	      0.35982903	     19.04915796	      2.48288119	     -2.07338002	    -60.74707888	      7.57803154	      0.24798930	     16.81990435	     -1.44996489	      3.89357716	    -24.46064497	      8.49821947	      0.71702037	     -6.60355882	     -2.20424311	      1.07959634
      2.72000000	     -2.32524774	     -0.31720213	    -42.76024975	     -0.28307791	      0.95172535	      0.36405389	     19.77815007	      2.42105335	     -2.58277979	    -60.54032896	      7.98969554	     -0.43570438	     15.93980557	     -1.55861460	      3.60706103	    -24.27128339	      8.87447048	      0.54108872	     -6.79127774	     -2.05415995	      0.56542653
      2.73000000	     -2.25216703	     -0.52162572	    -43.12575636	     -0.27729425	      0.95270226	      0.36833026	     20.47666210	      2.38216994	     -3.05877372	    -60.14284494	      8.39095037	     -0.96049442	     15.06812138	     -1.66092524	      3.31386015	    -24.05306920	      9.23750410	      0.35522542	     -6.95241942	     -1.91642081	      0.08128260
      2.74000000	     -2.18712014	     -0.70883094	    -43.50656295	     -0.27162808	      0.95357141	      0.37266290	     21.13868683	      2.36143195	     -3.50772682	    -59.56306363	      8.77436729	     -1.36969004	     14.20504704	     -1.75569370	      3.00306198	    -23.81633504	      9.59130698	      0.15626010	     -7.09309820	     -1.79234766	     -0.37293169
      2.75000000	     -2.13850131	     -0.88635011	    -43.89833990	     -0.26607941	      0.95432989	      0.37708159	     21.75745274	      2.37898751	     -3.92279317	    -58.80128660	      9.14835462	     -1.64622233	     13.35279773	     -1.85433832	      2.69666443	    -23.56494220	      9.93094408	     -0.04152039	     -7.21056926	     -1.67102278	     -0.81437960
      2.76000000	     -2.10493660	     -1.04402552	    -44.29401912	     -0.26061262	      0.95494860	      0.38153712	     22.34334289	      2.40308589	     -4.33722909	    -57.87484896	      9.49525840	     -1.84650112	     12.53121382	     -1.94428575	      2.38074948	    -23.31907056	     10.27065018	     -0.24565670	     -7.30259071	     -1.55580530	     -1.22187731
      2.77000000	     -2.07870181	     -1.18737936	    -44.68724473	     -0.25524753	      0.95545173	      0.38605337	     22.87960966	      2.44450296	     -4.73049731	    -56.78348848	      9.79432564	     -2.00030029	     11.73071519	     -2.02750798	      2.05630268	    -23.07761555	     10.60469603	     -0.45920041	     -7.38230076	     -1.45175378	     -1.64231162
      2.78000000	     -2.06330935	     -1.30972182	    -45.07185410	     -0.24998038	      0.95581750	      0.39059430	     23.37720546	      2.49327857	     -5.11119344	    -55.54251384	     10.05009558	     -2.10632673	     10.96991113	     -2.09944265	      1.72512774	    -22.85536478	     10.93810743	     -0.66945382	     -7.44480797	     -1.35856381	     -2.06661079
      2.79000000	     -2.07768366	     -1.41622643	    -45.44679318	     -0.24480960	      0.95604384	      0.39516216	     23.84083993	      2.55806791	     -5.50155362	    -54.15124539	     10.26623308	     -2.15379190	     10.25682215	     -2.17943196	      1.39910223	    -22.64732812	     11.27822025	     -0.85257343	     -7.48054176	     -1.25591900	     -2.46527844
      2.80000000	     -2.09361175	     -1.50769324	    -45.81407697	     -0.23974436	      0.95615963	      0.39975189	     24.25083296	      2.62384712	     -5.88234781	    -52.62292465	     10.44177988	     -2.17163993	      9.57228862	     -2.24907138	      1.06153467	    -22.45830611	     11.62499818	     -1.01990340	     -7.51660190	     -1.16535776	     -2.86496867
      2.81000000	     -2.11885562	     -1.58036854	    -46.17733525	     -0.23478578	      0.95615862	      0.40436965	     24.61577311	      2.69014936	     -6.26060886	    -50.96508688	     10.57783336	     -2.16668238	      8.92524751	     -2.31198589	      0.71818431	    -22.29117173	     11.97874417	     -1.16457783	     -7.54344780	     -1.08388417	     -3.25155395
      2.82000000	     -2.13940132	     -1.63960040	    -46.53961271	     -0.22992291	      0.95606656	      0.40901860	     24.92125597	      2.74411868	     -6.65074348	    -49.18650826	     10.68480357	     -2.15595398	      8.29692321	     -2.36161247	      0.36281924	    -22.13986345	     12.33174339	     -1.29028811	     -7.57647284	     -1.01803511	     -3.61285157
      2.83000000	     -2.16970926	     -1.68186953	    -46.90194882	     -0.22516850	      0.95586286	      0.41369573	     25.18201591	      2.80415417	     -7.03827500	    -47.29206764	     10.75643776	     -2.14778809	      7.70761317	     -2.40453867	      0.01339762	    -22.01689947	     12.69182779	     -1.40028402	     -7.60219157	     -0.95646921	     -3.96181184
      2.84000000	     -2.20781234	     -1.70798317	    -47.26342055	     -0.22050954	      0.95555050	      0.41840395	     25.39707867	      2.86392234	     -7.44302182	    -45.29149565	     10.81020891	     -2.15074140	      7.15856857	     -2.44091373	     -0.33408108	    -21.92829236	     13.06002266	     -1.50176490	     -7.62047907	     -0.89920103	     -4.29114489
      2.85000000	     -2.23104707	     -1.73338554	    -47.62563051	     -0.21590963	      0.95518013	      0.42315718	     25.53767161	      2.91025718	     -7.89179218	    -43.19484607	     10.86108864	     -2.19364209	      6.60653829	     -2.46345129	     -0.68333524	    -21.85037761	     13.41320201	     -1.58178193	     -7.65919330	     -0.85057281	     -4.58244876
      2.86000000	     -2.27835193	     -1.74439100	    -47.98027469	     -0.21139254	      0.95468860	      0.42793663	     25.64592716	      2.97905413	     -8.36253629	    -41.00396680	     10.87932668	     -2.24203898	      6.11557047	     -2.49258766	     -1.01533456	    -21.82435796	     13.78841101	     -1.66288270	     -7.67731938	     -0.78560887	     -4.86877896
      2.87000000	     -2.33528108	     -1.73789030	    -48.32776223	     -0.20693813	      0.95408953	      0.43275058	     25.72203031	      3.05761598	     -8.85791092	    -38.74205826	     10.88648835	     -2.28859663	      5.66833566	     -2.51696135	     -1.34148181	    -21.83522247	     14.17198399	     -1.74023416	     -7.67962613	     -0.71976849	     -5.14905504
      2.88000000	     -2.39400527	     -1.72863788	    -48.67028099	     -0.20254659	      0.95341766	      0.43763099	     25.74752403	      3.15437561	     -9.39330443	    -36.41452731	     10.90035841	     -2.34048027	      5.23642907	     -2.54369616	     -1.66237583	    -21.86691426	     14.55107102	     -1.80018463	     -7.68250092	     -0.65055657	     -5.39989860
